<svg width="32" height="32" viewBox="0 0 32 32" fill="none" xmlns="http://www.w3.org/2000/svg">
<circle cx="16" cy="16" r="16" fill="#C8C8C8"/>
<path d="M18.5804 17.0797C18.5804 18.5026 17.4229 19.6601 16 19.6601C14.5771 19.6601 13.42 18.5026 13.42 17.0797C13.42 15.6568 14.5771 14.4993 16 14.4993C17.4229 14.4993 18.5804 15.6573 18.5804 17.0797ZM24 13.4157V20.7447C24 21.7217 23.2078 22.5139 22.2308 22.5139H9.76923C8.79217 22.5139 8 21.7217 8 20.7447V13.4157C8 12.4386 8.79217 11.6464 9.76923 11.6464H11.9454V11.0343C11.9454 10.1793 12.638 9.48621 13.4934 9.48621H18.5066C19.362 9.48621 20.0546 10.1793 20.0546 11.0343V11.646H22.2308C23.2078 11.6464 24 12.4386 24 13.4157ZM19.9073 17.0797C19.9073 14.9253 18.1545 13.1724 16 13.1724C13.846 13.1724 12.0931 14.9253 12.0931 17.0797C12.0931 19.2342 13.846 20.9871 16 20.9871C18.1545 20.9871 19.9073 19.2342 19.9073 17.0797Z" fill="#29282B"/>
</svg>
